<?xml version="1.0" encoding="iso-8859-1"?>
<!-- Uploaded to: SVG Repo, www.svgrepo.com, Generator: SVG Repo Mixer Tools -->
<!DOCTYPE svg PUBLIC "-//W3C//DTD SVG 1.1//EN" "http://www.w3.org/Graphics/SVG/1.1/DTD/svg11.dtd">
<svg fill="#fff" version="1.1" id="Capa_1" xmlns="http://www.w3.org/2000/svg" xmlns:xlink="http://www.w3.org/1999/xlink" 
	 width="800px" height="800px" viewBox="0 0 309.098 309.098"
	 xml:space="preserve">
<g>
	<g>
		<path d="M154.549,48.503c14.112,0,27.556,2.827,39.879,7.848c1.549-4.396,2.434-9.108,2.434-14.035
			c0-23.369-18.941-42.313-42.312-42.313c-23.369,0-42.313,18.944-42.313,42.313c0,4.927,0.886,9.634,2.434,14.035
			C126.993,51.331,140.438,48.503,154.549,48.503z"/>
		<path d="M252.749,114.672c5.018,12.321,7.845,25.769,7.845,39.876c0,14.116-2.827,27.558-7.845,39.882
			c4.396,1.548,9.108,2.434,14.038,2.434c23.363,0,42.311-18.942,42.311-42.316c0-23.366-18.947-42.31-42.311-42.31
			C261.853,112.239,257.146,113.124,252.749,114.672z"/>
		<path d="M154.549,309.095c23.371,0,42.312-18.941,42.312-42.315c0-4.925-0.885-9.632-2.434-14.033
			c-12.323,5.023-25.767,7.851-39.879,7.851c-14.11,0-27.556-2.827-39.879-7.845c-1.548,4.396-2.434,9.107-2.434,14.037
			C112.235,290.154,131.18,309.095,154.549,309.095z"/>
		<path d="M42.313,196.865c4.927,0,9.634-0.886,14.035-2.434c-5.02-12.324-7.847-25.767-7.847-39.882
			c0-14.108,2.827-27.555,7.847-39.876c-4.396-1.548-9.108-2.434-14.035-2.434C18.944,112.239,0,131.183,0,154.549
			C0.005,177.922,18.944,196.865,42.313,196.865z"/>
		<path d="M56.858,113.287c10.747-25.344,31.076-45.679,56.421-56.421c-2.015-4.184-4.707-8.125-8.177-11.591
			c-16.521-16.523-43.314-16.523-59.835,0c-16.523,16.521-16.523,43.315,0,59.836C48.739,108.58,52.674,111.273,56.858,113.287z"/>
		<path d="M252.236,113.287c4.185-2.014,8.13-4.707,11.594-8.176c16.523-16.521,16.523-43.315,0-59.836
			c-16.523-16.523-43.314-16.523-59.833,0c-3.469,3.467-6.172,7.407-8.182,11.591C221.157,67.608,241.492,87.943,252.236,113.287z"
			/>
		<path d="M45.267,203.99c-16.523,16.523-16.523,43.32,0,59.838c16.521,16.523,43.315,16.523,59.835,0
			c3.47-3.469,6.167-7.404,8.177-11.588c-25.345-10.75-45.679-31.079-56.421-56.421C52.674,197.828,48.739,200.52,45.267,203.99z"/>
		<path d="M263.83,263.833c16.523-16.523,16.523-43.315,0-59.833c-3.464-3.47-7.409-6.173-11.594-8.182
			c-10.744,25.347-31.073,45.682-56.421,56.421c2.02,4.184,4.713,8.129,8.182,11.594
			C220.516,280.357,247.307,280.357,263.83,263.833z"/>
	</g>
</g>
</svg>